<svg width="64" height="64" viewBox="0 0 64 64" xmlns="http://www.w3.org/2000/svg">
  <!-- Background -->
  <rect width="64" height="64" fill="#1a1a1a"/>
  
  <!-- AJ1 Shoe Pixel Art -->
  <!-- Sole -->
  <rect x="8" y="48" width="48" height="8" fill="#f5f5f5"/>
  <rect x="12" y="52" width="40" height="4" fill="#e0e0e0"/>
  
  <!-- Main Body -->
  <rect x="16" y="32" width="32" height="16" fill="#dc2626"/>
  <rect x="20" y="28" width="24" height="4" fill="#dc2626"/>
  <rect x="24" y="24" width="16" height="4" fill="#dc2626"/>
  
  <!-- White Panels -->
  <rect x="20" y="36" width="8" height="8" fill="#ffffff"/>
  <rect x="36" y="36" width="8" height="8" fill="#ffffff"/>
  <rect x="28" y="32" width="8" height="4" fill="#ffffff"/>
  
  <!-- Black Accents -->
  <rect x="18" y="34" width="2" height="2" fill="#000000"/>
  <rect x="44" y="34" width="2" height="2" fill="#000000"/>
  <rect x="30" y="26" width="4" height="2" fill="#000000"/>
  
  <!-- Swoosh -->
  <rect x="22" y="38" width="2" height="2" fill="#000000"/>
  <rect x="24" y="40" width="2" height="2" fill="#000000"/>
  <rect x="26" y="42" width="2" height="2" fill="#000000"/>
  <rect x="28" y="40" width="2" height="2" fill="#000000"/>
  <rect x="30" y="38" width="2" height="2" fill="#000000"/>
  
  <!-- Laces -->
  <rect x="26" y="30" width="2" height="2" fill="#f5f5f5"/>
  <rect x="30" y="30" width="2" height="2" fill="#f5f5f5"/>
  <rect x="34" y="30" width="2" height="2" fill="#f5f5f5"/>
  <rect x="38" y="30" width="2" height="2" fill="#f5f5f5"/>
  
  <!-- Highlights -->
  <rect x="18" y="30" width="2" height="2" fill="#ff4444"/>
  <rect x="44" y="30" width="2" height="2" fill="#ff4444"/>
</svg>